<svg width="196" height="60" viewBox="0 0 196 60" fill="none" xmlns="http://www.w3.org/2000/svg">
<path d="M-3.87579e-05 1.54001H10.15L29.82 33.46L49.49 1.54001H59.64V58.59H46.9V27.3L33.67 49.21H25.97L12.74 27.3V58.59H-3.87579e-05V1.54001ZM109.417 58.73L107.107 56C102.673 58.66 97.9132 59.99 92.8265 59.99C88.4865 59.99 84.7065 59.29 81.4865 57.89C78.2665 56.49 75.7932 54.5533 74.0665 52.08C72.3865 49.56 71.5465 46.6667 71.5465 43.4C71.5465 39.76 72.5499 36.6333 74.5565 34.02C76.6099 31.36 79.4565 29.0733 83.0965 27.16C81.5099 25.06 80.2732 23.03 79.3865 21.07C78.5465 19.11 78.1265 17.0567 78.1265 14.91C78.1265 12.0167 78.8965 9.45001 80.4365 7.21C82.0232 4.92334 84.1932 3.15001 86.9465 1.89001C89.6999 0.630006 92.7565 5.84126e-06 96.1165 5.84126e-06C99.5232 5.84126e-06 102.533 0.606673 105.147 1.82001C107.807 2.98667 109.86 4.64334 111.307 6.79001C112.8 8.93667 113.547 11.3633 113.547 14.07C113.547 17.6633 112.45 20.7433 110.257 23.31C108.063 25.8767 105.007 28.1867 101.087 30.24L108.437 38.92C109.65 36.3533 110.467 33.6467 110.887 30.8H122.087C121.48 37.1467 119.403 42.7933 115.857 47.74L125.097 58.73H109.417ZM96.1865 8.89001C94.5532 8.89001 93.1765 9.42667 92.0565 10.5C90.9832 11.5733 90.4465 12.9267 90.4465 14.56C90.4465 15.82 90.7732 17.0333 91.4265 18.2C92.0799 19.32 93.0832 20.72 94.4365 22.4C96.6765 21.3733 98.4032 20.2533 99.6165 19.04C100.877 17.78 101.507 16.31 101.507 14.63C101.507 12.95 100.993 11.5733 99.9665 10.5C98.9865 9.42667 97.7265 8.89001 96.1865 8.89001ZM93.6665 49.91C96.0465 49.91 98.3332 49.3033 100.527 48.09L89.8865 35.42C87.9265 36.4467 86.4565 37.5433 85.4765 38.71C84.5432 39.83 84.0765 41.1833 84.0765 42.77C84.0765 44.87 84.9399 46.5967 86.6665 47.95C88.3932 49.2567 90.7265 49.91 93.6665 49.91ZM136.027 1.54001H146.177L165.847 33.46L185.517 1.54001H195.667V58.59H182.927V27.3L169.697 49.21H161.997L148.767 27.3V58.59H136.027V1.54001Z" fill="url(#paint0_linear_675_6)"/>
<defs>
<linearGradient id="paint0_linear_675_6" x1="100.273" y1="-9.70999" x2="100.273" y2="65.29" gradientUnits="userSpaceOnUse">
<stop stop-color="#5570FF"/>
<stop offset="1" stop-color="#5EA8FF"/>
</linearGradient>
</defs>
</svg>
