<svg width="228" height="38" viewBox="0 0 228 38" fill="none" xmlns="http://www.w3.org/2000/svg">
<g filter="url(#filter0_d_284_7)">
<path d="M9.78127 0.296875L16.0781 15.625H16.3438L22.625 0.296875H28.4219V22.9219H23.8594V8.09375H23.6719L17.7656 22.8125H14.625L8.7344 8.0625H8.5469V22.9219H4.00002V0.296875H9.78127ZM42.7338 15.5938C42.3171 15.6042 41.5827 15.6458 40.5306 15.7188L39.0306 15.8438C38.2077 15.9062 37.5619 16.1302 37.0931 16.5156C36.6244 16.8906 36.39 17.401 36.39 18.0469C36.39 18.4635 36.4942 18.8177 36.7025 19.1094C36.9213 19.401 37.2234 19.625 37.6088 19.7812C38.0046 19.9375 38.4473 20.0156 38.9369 20.0156C39.6348 20.0156 40.2546 19.8802 40.7963 19.6094C41.3379 19.3281 41.7598 18.9479 42.0619 18.4688C42.364 17.9792 42.515 17.4427 42.515 16.8594L42.4838 11.375C42.4838 10.8958 42.3796 10.4896 42.1713 10.1562C41.9734 9.8125 41.6661 9.55729 41.2494 9.39062C40.8431 9.21354 40.3588 9.125 39.7963 9.125C39.015 9.125 38.3796 9.29167 37.89 9.625C37.4004 9.94792 37.0931 10.4062 36.9681 11H32.5619C32.6661 10 33.015 9.10417 33.6088 8.3125C34.2129 7.51042 35.0463 6.88021 36.1088 6.42188C37.1817 5.96354 38.4473 5.73438 39.9056 5.73438C41.2181 5.73438 42.4161 5.9375 43.4994 6.34375C44.5827 6.75 45.4525 7.38542 46.1088 8.25C46.7754 9.10417 47.1088 10.1823 47.1088 11.4844V22.9219H42.7181V20.5781H42.5931C42.3119 21.1094 41.9421 21.5729 41.4838 21.9688C41.0254 22.3646 40.4734 22.6771 39.8275 22.9062C39.1921 23.125 38.4525 23.2344 37.6088 23.2344C36.515 23.2344 35.5463 23.0417 34.7025 22.6562C33.8588 22.2708 33.1921 21.6979 32.7025 20.9375C32.2129 20.1771 31.9681 19.2604 31.9681 18.1875C31.9681 16.4167 32.5515 15.1302 33.7181 14.3281C34.8952 13.526 36.4161 13.0677 38.2806 12.9531C38.5931 12.9219 39.5567 12.8698 41.1713 12.7969L42.7025 12.7344L42.7338 15.5938ZM60.2019 9.42188H50.0456V5.95312H60.2019V9.42188ZM57.0144 1.89062V17.7031C57.0144 18.1406 57.0769 18.4844 57.2019 18.7344C57.3373 18.974 57.5196 19.1458 57.7488 19.25C57.9884 19.3438 58.28 19.3958 58.6238 19.4062C59.0613 19.4167 59.6654 19.3906 60.4363 19.3281V22.9844C59.7384 23.099 58.9311 23.1562 58.0144 23.1562C56.8686 23.1562 55.8738 22.9844 55.03 22.6406C54.1863 22.2865 53.53 21.75 53.0613 21.0312C52.5925 20.3125 52.3634 19.4167 52.3738 18.3438V1.89062H57.0144ZM71.2013 23.25C69.4929 23.25 68.0086 22.8802 66.7481 22.1406C65.4877 21.401 64.5242 20.3698 63.8575 19.0469C63.1909 17.724 62.8575 16.2083 62.8575 14.5C62.8575 12.7708 63.1961 11.2448 63.8731 9.92188C64.5502 8.59896 65.5138 7.57292 66.7638 6.84375C68.0138 6.10417 69.4825 5.73438 71.17 5.73438C72.6284 5.73438 73.9148 6 75.0294 6.53125C76.1544 7.05208 77.0346 7.80208 77.67 8.78125C78.3159 9.76042 78.67 10.8906 78.7325 12.1719H74.3575C74.2742 11.6094 74.0971 11.1146 73.8263 10.6875C73.5554 10.25 73.2013 9.91667 72.7638 9.6875C72.3263 9.44792 71.8211 9.32812 71.2481 9.32812C70.5086 9.32812 69.8627 9.53125 69.3106 9.9375C68.7586 10.3333 68.3263 10.9115 68.0138 11.6719C67.7013 12.4323 67.545 13.349 67.545 14.4219C67.545 15.5052 67.6961 16.4323 67.9981 17.2031C68.3106 17.9635 68.7429 18.5469 69.295 18.9531C69.8471 19.3594 70.4981 19.5625 71.2481 19.5625C71.8002 19.5625 72.295 19.4583 72.7325 19.25C73.17 19.0312 73.5294 18.7083 73.8106 18.2812C74.0919 17.8542 74.2742 17.3438 74.3575 16.75H78.7325C78.6596 18.0312 78.3054 19.1615 77.67 20.1406C77.045 21.1198 76.1752 21.8854 75.0606 22.4375C73.9565 22.9792 72.67 23.25 71.2013 23.25ZM86.8569 22.9219H82.2319V0.296875H86.7319V8.92188H86.9194C87.3256 7.91146 87.9559 7.13021 88.81 6.57812C89.6746 6.01562 90.7319 5.73438 91.9819 5.73438C93.1694 5.73438 94.2059 5.98958 95.0913 6.5C95.9767 7.01042 96.659 7.74479 97.1381 8.70312C97.6173 9.66146 97.8569 10.7969 97.8569 12.1094V22.9219H93.2319V12.9062C93.2319 12.2083 93.1121 11.6094 92.8725 11.1094C92.6329 10.6094 92.284 10.2292 91.8256 9.96875C91.3673 9.70833 90.8152 9.57812 90.1694 9.57812C89.5131 9.57812 88.9402 9.71875 88.4506 10C87.9611 10.2708 87.5704 10.6719 87.2788 11.2031C86.9975 11.7344 86.8569 12.3646 86.8569 13.0938V22.9219ZM117.043 23.25C115.522 23.25 114.189 22.974 113.043 22.4219C111.908 21.8698 111.033 21.1146 110.418 20.1562C109.804 19.1875 109.496 18.1094 109.496 16.9219C109.496 16.0573 109.668 15.2865 110.012 14.6094C110.356 13.9219 110.824 13.2969 111.418 12.7344C112.022 12.1719 112.793 11.5677 113.731 10.9219L118.09 8.04688C118.663 7.66146 119.08 7.27604 119.34 6.89062C119.6 6.49479 119.731 6.05729 119.731 5.57812C119.731 5.25521 119.647 4.95312 119.481 4.67188C119.324 4.38021 119.085 4.15104 118.762 3.98438C118.439 3.80729 118.064 3.72396 117.637 3.73438C117.21 3.73438 116.824 3.82812 116.481 4.01562C116.147 4.20312 115.887 4.45833 115.699 4.78125C115.512 5.10417 115.418 5.45833 115.418 5.84375C115.418 6.23958 115.522 6.65625 115.731 7.09375C115.949 7.52083 116.215 7.94271 116.528 8.35938C116.84 8.77604 117.278 9.32812 117.84 10.0156C118.017 10.2031 118.184 10.401 118.34 10.6094L129.059 22.9219H124.215L115.278 12.9531C115.017 12.651 114.788 12.3802 114.59 12.1406C113.944 11.3906 113.403 10.7031 112.965 10.0781C112.538 9.45312 112.179 8.78125 111.887 8.0625C111.606 7.33333 111.465 6.57292 111.465 5.78125C111.465 4.6875 111.72 3.70312 112.231 2.82812C112.751 1.94271 113.47 1.25 114.387 0.75C115.314 0.25 116.382 0 117.59 0C118.778 0 119.814 0.239583 120.699 0.71875C121.585 1.19792 122.267 1.83854 122.746 2.64062C123.225 3.43229 123.465 4.32292 123.465 5.3125C123.465 6.34375 123.21 7.29167 122.699 8.15625C122.189 9.01042 121.444 9.80208 120.465 10.5312L115.856 13.875C115.439 14.1667 115.09 14.474 114.809 14.7969C114.538 15.1198 114.33 15.4375 114.184 15.75C114.048 16.0625 113.981 16.3698 113.981 16.6719C113.981 17.2031 114.116 17.6875 114.387 18.125C114.658 18.5625 115.043 18.9062 115.543 19.1562C116.043 19.4062 116.616 19.5312 117.262 19.5312C118.345 19.5312 119.392 19.2083 120.403 18.5625C121.423 17.9062 122.251 17 122.887 15.8438C123.533 14.6771 123.856 13.3698 123.856 11.9219H127.715C127.715 13.276 127.564 14.5052 127.262 15.6094C126.97 16.7135 126.569 17.6667 126.059 18.4688C125.548 19.2604 124.918 19.9479 124.168 20.5312C123.97 20.6667 123.767 20.7917 123.559 20.9062C123.465 20.9688 123.366 21.0312 123.262 21.0938C123.158 21.1562 123.048 21.2292 122.934 21.3125C122.142 21.9583 121.236 22.4427 120.215 22.7656C119.194 23.0885 118.137 23.25 117.043 23.25ZM145.464 0.296875L151.761 15.625H152.026L158.308 0.296875H164.104V22.9219H159.542V8.09375H159.354L153.448 22.8125H150.308L144.417 8.0625H144.229V22.9219H139.683V0.296875H145.464ZM176.104 23.25C174.416 23.25 172.942 22.8854 171.682 22.1562C170.421 21.4271 169.453 20.401 168.776 19.0781C168.099 17.7552 167.76 16.2292 167.76 14.5C167.76 12.75 168.099 11.2188 168.776 9.90625C169.453 8.58333 170.421 7.55729 171.682 6.82812C172.942 6.09896 174.416 5.73438 176.104 5.73438C177.781 5.73438 179.25 6.09896 180.51 6.82812C181.781 7.55729 182.75 8.58333 183.416 9.90625C184.083 11.2188 184.416 12.75 184.416 14.5C184.416 16.2292 184.083 17.7552 183.416 19.0781C182.75 20.401 181.781 21.4271 180.51 22.1562C179.25 22.8854 177.781 23.25 176.104 23.25ZM176.135 19.6719C176.906 19.6719 177.557 19.4479 178.088 19C178.63 18.5521 179.036 17.9375 179.307 17.1562C179.578 16.3646 179.713 15.4688 179.713 14.4688C179.713 13.4583 179.578 12.5625 179.307 11.7812C179.036 11 178.63 10.3854 178.088 9.9375C177.557 9.48958 176.906 9.26562 176.135 9.26562C175.343 9.26562 174.671 9.48958 174.119 9.9375C173.567 10.3854 173.151 11 172.869 11.7812C172.588 12.5521 172.448 13.4479 172.448 14.4688C172.448 15.4792 172.588 16.375 172.869 17.1562C173.151 17.9375 173.567 18.5521 174.119 19C174.671 19.4479 175.343 19.6719 176.135 19.6719ZM192.603 22.9219H187.978V5.95312H192.384V8.92188H192.572C192.968 7.92188 193.603 7.14062 194.478 6.57812C195.364 6.01562 196.431 5.73438 197.681 5.73438C198.858 5.73438 199.884 5.98958 200.759 6.5C201.634 7.01042 202.311 7.74479 202.791 8.70312C203.28 9.66146 203.525 10.7969 203.525 12.1094V22.9219H198.9V12.9062C198.9 12.2083 198.78 11.6146 198.541 11.125C198.311 10.625 197.968 10.2448 197.509 9.98438C197.051 9.71354 196.499 9.57812 195.853 9.57812C195.207 9.57812 194.64 9.71875 194.15 10C193.66 10.2708 193.28 10.6719 193.009 11.2031C192.739 11.724 192.603 12.3542 192.603 13.0938V22.9219ZM215.353 29.6406C213.832 29.6406 212.493 29.4219 211.337 28.9844C210.191 28.5469 209.29 27.9271 208.634 27.125C207.988 26.3229 207.618 25.3854 207.524 24.3125H212.071C212.217 24.9792 212.582 25.474 213.165 25.7969C213.748 26.1198 214.514 26.2812 215.462 26.2812C216.597 26.2812 217.478 26.0208 218.103 25.5C218.738 24.9896 219.056 24.1719 219.056 23.0469V19.9219H218.853C218.603 20.4531 218.274 20.9219 217.868 21.3281C217.472 21.724 216.946 22.0521 216.29 22.3125C215.634 22.5625 214.868 22.6875 213.993 22.6875C212.691 22.6875 211.519 22.375 210.478 21.75C209.436 21.125 208.613 20.1875 208.009 18.9375C207.405 17.6875 207.103 16.151 207.103 14.3281C207.103 12.474 207.41 10.901 208.024 9.60938C208.639 8.31771 209.462 7.34896 210.493 6.70312C211.535 6.05729 212.701 5.73438 213.993 5.73438C214.889 5.73438 215.66 5.88542 216.306 6.1875C216.951 6.47917 217.457 6.83333 217.821 7.25C218.186 7.66667 218.524 8.18229 218.837 8.79688H219.024V5.95312H223.618V23.1094C223.618 24.5052 223.269 25.6927 222.571 26.6719C221.873 27.6615 220.905 28.401 219.665 28.8906C218.425 29.3906 216.988 29.6406 215.353 29.6406ZM215.431 19.1875C216.191 19.1875 216.842 18.9948 217.384 18.6094C217.936 18.224 218.353 17.6719 218.634 16.9531C218.925 16.2344 219.071 15.375 219.071 14.375C219.071 13.3646 218.925 12.4896 218.634 11.75C218.353 11 217.941 10.4271 217.399 10.0312C216.858 9.63542 216.201 9.4375 215.431 9.4375C214.66 9.4375 214.004 9.64583 213.462 10.0625C212.92 10.4688 212.509 11.0469 212.228 11.7969C211.957 12.5365 211.821 13.3958 211.821 14.375C211.821 15.3542 211.957 16.2031 212.228 16.9219C212.509 17.6406 212.92 18.1979 213.462 18.5938C214.004 18.9896 214.66 19.1875 215.431 19.1875Z" fill="#0587EA"/>
</g>
<defs>
<filter id="filter0_d_284_7" x="0" y="0" width="227.618" height="37.6406" filterUnits="userSpaceOnUse" color-interpolation-filters="sRGB">
<feFlood flood-opacity="0" result="BackgroundImageFix"/>
<feColorMatrix in="SourceAlpha" type="matrix" values="0 0 0 0 0 0 0 0 0 0 0 0 0 0 0 0 0 0 127 0" result="hardAlpha"/>
<feOffset dy="4"/>
<feGaussianBlur stdDeviation="2"/>
<feComposite in2="hardAlpha" operator="out"/>
<feColorMatrix type="matrix" values="0 0 0 0 0 0 0 0 0 0 0 0 0 0 0 0 0 0 0.1 0"/>
<feBlend mode="normal" in2="BackgroundImageFix" result="effect1_dropShadow_284_7"/>
<feBlend mode="normal" in="SourceGraphic" in2="effect1_dropShadow_284_7" result="shape"/>
</filter>
</defs>
</svg>
