<svg width="26" height="27" viewBox="0 0 26 27" fill="none" xmlns="http://www.w3.org/2000/svg">
<path d="M12.8158 10.125L16.2499 13.68V13.5C16.2499 12.6049 15.9075 11.7464 15.298 11.1135C14.6885 10.4806 13.8619 10.125 12.9999 10.125H12.8158ZM8.15742 11.025L9.83659 12.7688C9.78242 13.005 9.74992 13.2413 9.74992 13.5C9.74992 14.3951 10.0923 15.2536 10.7018 15.8865C11.3113 16.5194 12.138 16.875 12.9999 16.875C13.2383 16.875 13.4766 16.8413 13.7041 16.785L15.3833 18.5287C14.6574 18.9 13.8558 19.125 12.9999 19.125C11.5633 19.125 10.1856 18.5324 9.16976 17.4775C8.15393 16.4226 7.58325 14.9918 7.58325 13.5C7.58325 12.6112 7.79992 11.7788 8.15742 11.025ZM2.16659 4.80375L4.63659 7.36875L5.12409 7.875C3.33659 9.3375 1.92825 11.25 1.08325 13.5C2.95742 18.4388 7.58325 21.9375 12.9999 21.9375C14.6791 21.9375 16.2824 21.6 17.7449 20.9925L18.2108 21.465L21.3741 24.75L22.7499 23.3212L3.54242 3.375M12.9999 7.875C14.4365 7.875 15.8143 8.46763 16.8301 9.52252C17.8459 10.5774 18.4166 12.0082 18.4166 13.5C18.4166 14.22 18.2758 14.9175 18.0266 15.5475L21.2008 18.8438C22.8258 17.4375 24.1258 15.5925 24.9166 13.5C23.0424 8.56125 18.4166 5.0625 12.9999 5.0625C11.4833 5.0625 10.0316 5.34375 8.66659 5.85L11.0174 8.26875C11.6349 8.02125 12.2958 7.875 12.9999 7.875Z" fill="#777C89"/>
</svg>
