<svg width="25" height="25" viewBox="0 0 25 25" fill="none" xmlns="http://www.w3.org/2000/svg">
<g opacity="0.5">
<path d="M12.5 11.4583C14.2259 11.4583 15.625 10.0592 15.625 8.33331C15.625 6.60742 14.2259 5.20831 12.5 5.20831C10.7741 5.20831 9.375 6.60742 9.375 8.33331C9.375 10.0592 10.7741 11.4583 12.5 11.4583Z" fill="black"/>
<path d="M24.5625 6.95833C23.0833 4.85417 18.9583 0 12.5 0C6.04167 0 1.91667 4.85417 0.4375 6.95833C-0.145833 7.79167 -0.145833 8.89583 0.4375 9.70833C1.91667 11.8125 6.04167 16.6667 12.5 16.6667C18.9583 16.6667 23.0833 11.8125 24.5625 9.70833C25.1458 8.89583 25.1458 7.77083 24.5625 6.95833ZM12.5 13.5417C11.1187 13.5417 9.7939 12.9929 8.81715 12.0162C7.8404 11.0394 7.29167 9.71467 7.29167 8.33333C7.29167 6.952 7.8404 5.62724 8.81715 4.65049C9.7939 3.67373 11.1187 3.125 12.5 3.125C13.8813 3.125 15.2061 3.67373 16.1828 4.65049C17.1596 5.62724 17.7083 6.952 17.7083 8.33333C17.7083 9.71467 17.1596 11.0394 16.1828 12.0162C15.2061 12.9929 13.8813 13.5417 12.5 13.5417Z" fill="black"/>
</g>
</svg>
